# xmcd
#
# Track frame offsets:
#  150
#  16636
#  34326
#  54350
#  72642
#  92515
#  111485
#  125712
#  142821
#  169029
#  198608
#  215572
#  234385
#  262877
#  283430
#  298437
#
# Disc length: 4161 seconds
#
# Revision: 0
# Processed by: cddbd v1.4PL0 Copyright (c) Steve Scherf et al.
# Submitted via: AltoMP3_Maker 3.0
#
DISCID=fc103f10
DTITLE=欧美怀旧经典 - 人鬼情未了
DYEAR=1900
DGENRE=
TTITLE0=人鬼情未了
TTITLE1=昨日重现
TTITLE2=此情可待
TTITLE3=说你说我
TTITLE4=航行
TTITLE5=卡萨布兰卡
TTITLE6=雨中的节奏
TTITLE7=当男女相爱时
TTITLE8=到此为止
TTITLE9=无心细语
TTITLE10=巴比伦河
TTITLE11=对你倾情
TTITLE12=电话诉衷肠
TTITLE13=我将永远爱你
TTITLE14=爱情故事
TTITLE15=友谊天长地久
EXTD=
EXTT0=
EXTT1=
EXTT2=
EXTT3=
EXTT4=
EXTT5=
EXTT6=
EXTT7=
EXTT8=
EXTT9=
EXTT10=
EXTT11=
EXTT12=
EXTT13=
EXTT14=
EXTT15=
PLAYORDER=
